# xmcd CD database file
# Copyright (C) 1995-1998 Ti Kan
#
# Track frame offsets:
#	150
#	12702
#	32055
#	46770
#	71675
#	86075
#	100762
#	112937
#	129220
#	144535
#	158212
#	166980
#	180677
#
# Disc length: 2621 seconds
#
# Revision: 5
# Processed by: cddbd v1.4b41PL2 Copyright (c) Steve Scherf et al.
# Submitted via: CDex 1.30Release
#
DISCID=a60a3b0d
DTITLE=Tom Waits - The Early Years Vol. 1
DYEAR=1991
DGENRE=Blues
TTITLE0=Goin' Down Slow
TTITLE1=Poncho's Lament
TTITLE2=I'm Your Late Night Prostitute
TTITLE3=Had Me A Girl
TTITLE4=Ice Cream Man
TTITLE5=Rockin' Chair
TTITLE6=Virginia Ave.
TTITLE7=Midnight Lullabye
TTITLE8=When You Ain't Got Nobody
TTITLE9=Little Trip To Heaven
TTITLE10=Frank's Song
TTITLE11=Looks Like I'm Up Shit Creek Again
TTITLE12=So Long I'll See Ya
EXTD=YEAR: 1991 ID3G:   0
EXTT0=
EXTT1=
EXTT2=
EXTT3=
EXTT4=
EXTT5=
EXTT6=
EXTT7=
EXTT8=
EXTT9=
EXTT10=
EXTT11=
EXTT12=
PLAYORDER=
